<svg xmlns="http://www.w3.org/2000/svg" fill="rgba(5, 48, 61, 0.9999999999999999)" width="54.710357666015625" height="59" viewBox="6 2 54.710357666015625 59">
    <path d="M46.24 60.76a7 7 0 0 1-5-11.95l7.52-7.52a7 7 0 1 1 9.9 9.9l-7.52 7.52a7 7 0 0 1-4.9 2.05zm7.52-19.52a5 5 0 0 0-3.54 1.47l-7.51 7.51a5 5 0 0 0 0 7.07 5 5 0 0 0 7.07 0l7.51-7.51a5 5 0 0 0 0-7.07 4.94 4.94 0 0 0-3.53-1.47z"></path><path d="M54 55a1 1 0 0 1-.71-.29l-8-8a1 1 0 0 1 1.42-1.42l8 8a1 1 0 0 1 0 1.42A1 1 0 0 1 54 55z"></path><path d="M40 61a9 9 0 1 1 6-15.75 1 1 0 0 1-1.32 1.5A7 7 0 1 0 40 59a7.6 7.6 0 0 0 2.63-.47 1 1 0 0 1 .69 1.88A9.84 9.84 0 0 1 40 61zM46 15H18a3 3 0 0 1-3-3V9a3 3 0 0 1 3-3h3a1 1 0 0 0 1-1 3 3 0 0 1 3-3h14a3 3 0 0 1 3 3 1 1 0 0 0 1 1h3a3 3 0 0 1 3 3v3a3 3 0 0 1-3 3zM18 8a1 1 0 0 0-1 1v3a1 1 0 0 0 1 1h28a1 1 0 0 0 1-1V9a1 1 0 0 0-1-1h-3a3 3 0 0 1-3-3 1 1 0 0 0-1-1H25a1 1 0 0 0-1 1 3 3 0 0 1-3 3z"></path><path d="M39 61H9a3 3 0 0 1-3-3V11a3 3 0 0 1 3-3h6a1 1 0 0 1 0 2H9a1 1 0 0 0-1 1v47a1 1 0 0 0 1 1h30a1 1 0 0 1 0 2zM55 61h-8a1 1 0 0 1 0-2h8a1 1 0 0 0 1-1v-6a1 1 0 0 1 2 0v6a3 3 0 0 1-3 3zM57 42a1 1 0 0 1-1-1V11a1 1 0 0 0-1-1h-6a1 1 0 0 1 0-2h6a3 3 0 0 1 3 3v30a1 1 0 0 1-1 1z"></path><path d="M33 57H13a3 3 0 0 1-3-3V16a3 3 0 0 1 3-3h38a3 3 0 0 1 3 3v24a1 1 0 0 1-2 0V16a1 1 0 0 0-1-1H13a1 1 0 0 0-1 1v38a1 1 0 0 0 1 1h20a1 1 0 0 1 0 2z"></path><path d="M22 26h-6a1 1 0 0 1-1-1v-6a1 1 0 0 1 1-1h6a1 1 0 0 1 1 1v6a1 1 0 0 1-1 1zm-5-2h4v-4h-4zM22 37h-6a1 1 0 0 1-1-1v-6a1 1 0 0 1 1-1h6a1 1 0 0 1 1 1v6a1 1 0 0 1-1 1zm-5-2h4v-4h-4zM22 48h-6a1 1 0 0 1-1-1v-6a1 1 0 0 1 1-1h6a1 1 0 0 1 1 1v6a1 1 0 0 1-1 1zm-5-2h4v-4h-4zM48 21H32a1 1 0 0 1 0-2h16a1 1 0 0 1 0 2zM48 25H32a1 1 0 0 1 0-2h16a1 1 0 0 1 0 2zM48 32H32a1 1 0 0 1 0-2h16a1 1 0 0 1 0 2zM48 36H32a1 1 0 0 1 0-2h16a1 1 0 0 1 0 2zM47 42H32a1 1 0 0 1 0-2h15a1 1 0 0 1 0 2z"></path>
</svg>
